/* XPM */
static char *fe77335c8d4c4142e23f78a76cd29eaeaPwaQRp2iRKbcSP9[] = {
/* columns rows colors chars-per-pixel */
"33 30 126 2 ",
"   c None",
".  c #8B582D",
"X  c #935D2E",
"o  c #945F32",
"O  c #976030",
"+  c #9D6435",
"@  c #A26632",
"#  c #A66934",
"$  c #A86A34",
"%  c #A26939",
"&  c #AC6E3A",
"*  c #B06E36",
"=  c #B3723B",
"-  c #BA753D",
";  c #BE7A43",
":  c #BD7C49",
">  c #C37D44",
",  c #CC8246",
"<  c #C78049",
"1  c #CC8349",
"2  c #D08547",
"3  c #D1864A",
"4  c #D58A4C",
"5  c #DA8B4C",
"6  c #D88B4E",
"7  c #D88B4D",
"8  c #D88C4C",
"9  c #D98C4C",
"0  c #D98D4C",
"q  c #D88C4D",
"w  c #D88D4D",
"e  c #D98D4D",
"r  c #DA8C4C",
"t  c #DB8C4C",
"y  c #DB8D4C",
"u  c #DA8C4D",
"i  c #DA8D4D",
"p  c #DB8D4D",
"a  c #DA8E4D",
"s  c #DB8E4D",
"d  c #D88C4E",
"f  c #D98D4E",
"g  c #D88D4F",
"h  c #DA8C4E",
"j  c #DA8D4E",
"k  c #DB8D4E",
"l  c #DA8D4F",
"z  c #D88E4E",
"x  c #DA8E4E",
"c  c #DB8E4E",
"v  c #DA8E4F",
"b  c #DB8F4F",
"n  c #DC8E4C",
"m  c #DD8E4C",
"M  c #DC8F4D",
"N  c #DE8E4C",
"B  c #DE8F4D",
"V  c #DC8E4E",
"C  c #DD8F4E",
"Z  c #DC8F4F",
"A  c #DD8F4F",
"S  c #DF8F4E",
"D  c #DA8C4B",
"F  c #DE904E",
"G  c #DE904F",
"H  c #D38C50",
"J  c #D78C50",
"K  c #D68D50",
"L  c #D78E51",
"P  c #D88C50",
"I  c #DB8D50",
"U  c #D98F50",
"Y  c #DA8F50",
"T  c #DA8E51",
"R  c #DB8F52",
"E  c #D98F54",
"W  c #D99150",
"Q  c #DD9051",
"!  c #DE9050",
"~  c #DE9151",
"^  c #DE9252",
"/  c #DF9253",
"(  c #DF9254",
")  c #DC9454",
"_  c #DE9458",
"`  c #E0914F",
"'  c #E1924F",
"]  c #E0934F",
"[  c #E3944F",
"{  c #E5964E",
"}  c #E09250",
"|  c #E19250",
" . c #E09251",
".. c #E19251",
"X. c #E29350",
"o. c #E39350",
"O. c #E09551",
"+. c #E19553",
"@. c #E39553",
"#. c #E59450",
"$. c #E69451",
"%. c #E59553",
"&. c #E59752",
"*. c #E29754",
"=. c #E39655",
"-. c #E39757",
";. c #E59754",
":. c #E39653",
">. c #E79951",
",. c #E69953",
"<. c #E79A53",
"1. c #E29955",
"2. c #E49857",
"3. c #E69A56",
"4. c #E89A52",
"5. c #EA9A54",
"6. c #E99C55",
"7. c #EA9C56",
"8. c #ED9E54",
"9. c #E89A54",
"0. c #E79A5A",
"q. c #E79D5A",
"w. c #E99E58",
"e. c #EA9F5A",
"r. c #ECA05B",
"t. c #F0A459",
/* pixels */
"                                                                  ",
"                    R 8             8                             ",
"            _ R 6 4 I 3 4 2 R 8 2 2 > > , > 2 4 t                 ",
"            ^ ^ > 6 6 3 3 P 8 > 3 2 2 2 4 7 7 2 t                 ",
"            -.R 1 H 3 6 > 3 > ; > > > > 2 2 , > ..                ",
"            L 6 3 6 > R J 4 6 7 N ( 4 4 2 3 ^ 6 0.                ",
"            4 3 I 2 > 3 > > 2 S o.8.5.{ 5.>.8.t.                  ",
"            H L 7 6 6 3 3 E 7 4 > 3 2 , 6 4                       ",
"            W S 7 2 2 2 8 2 6 N                                   ",
"            z z t t 3 3 R 3 I N                                   ",
"            3 g 1 4 3 3 R 2 2 6 -                                 ",
"            G 6 2 6 6 H P 8 8 2 , ; ; > > ; :                     ",
"            z z , R n 7 z 4 1 1 4 2 1 , 1 6 3                     ",
"            -.W 3 2 7 7 S 3 , 6 t 4 1 2 2 8 0.                    ",
"            1.g 8 7 4 2 3 2 2 2 S z 1 6 6 1 ^                     ",
"            3 3 8 S 7 4 2 2 R ! ' 5.9.&.w.&.                      ",
"            W 3 t 4 4 S 1 , S  .                                  ",
"              W t t 7 4 7 8 S [                                   ",
"              L z F S 2 4 2 ^ &.3                                 ",
"              ^ G n z 2 4 z -.>.& . o o + + %                     ",
"              @.F n 4 4 8 2 t F # X X X O + # &                   ",
"              4 z z 4 4 3 3 F 8 & # # = - * - & :                 ",
"              t 2 z t , 8 8 t 6 , , > , 2 1 1 1 H E               ",
"              @.z ^ 8 F t t t 4 3 8 F ' 7 4 z S E 0.              ",
"              ) g @.6 ^ ' z t 4 4 n [ 7 > > , 4  .                ",
"                w.r.q.>.8.3.@.3.{ &.2.z S S 4 z -.                ",
"                                                                  ",
"                                                                  ",
"                                                                  ",
"                                                                  "
};
