/* XPM */
static char *_abd13f31b5847e8e17c2e238fa34cd65yD5m42USKwIpGYu[] = {
/* columns rows colors chars-per-pixel */
"30 30 158 2 ",
"   c None",
".  c #2C2D2E",
"X  c #2F2F31",
"o  c #2E3032",
"O  c #333435",
"+  c #383734",
"@  c #3A3836",
"#  c #343639",
"$  c #36393B",
"%  c #3A3B3D",
"&  c #5E441A",
"*  c #514220",
"=  c #594A26",
"-  c #46433A",
";  c #4C4A3D",
":  c #514D3F",
">  c #5A4E35",
",  c #5C553D",
"<  c #6A5025",
"1  c #6A582C",
"2  c #625532",
"3  c #6F5E33",
"4  c #785E30",
"5  c #726129",
"6  c #7E632A",
"7  c #6D6136",
"8  c #786739",
"9  c #7D6C3C",
"0  c #3C3E42",
"q  c #3E4044",
"w  c #424345",
"e  c #494743",
"r  c #4D4B43",
"t  c #43464A",
"y  c #46494E",
"u  c #494B4C",
"i  c #575245",
"p  c #5F5946",
"a  c #5B594E",
"s  c #474C52",
"d  c #4B4E53",
"f  c #4E5156",
"g  c #4F535A",
"h  c #545555",
"j  c #595957",
"k  c #51545A",
"l  c #55595F",
"z  c #595C5D",
"x  c #645C4B",
"c  c #615F5B",
"v  c #776B47",
"b  c #786B48",
"n  c #757344",
"m  c #6F6F54",
"M  c #746E59",
"N  c #555B60",
"B  c #5A5E63",
"V  c #5D6066",
"C  c #5E6369",
"Z  c #4D7773",
"A  c #5A7072",
"S  c #626361",
"D  c #6C6B64",
"F  c #61666C",
"G  c #65686D",
"H  c #6E6D6A",
"J  c #716F6A",
"K  c #6E706F",
"L  c #787460",
"P  c #72726A",
"I  c #787669",
"U  c #747162",
"Y  c #666B73",
"T  c #696E74",
"R  c #686E78",
"E  c #6C7077",
"W  c #6D737B",
"Q  c #71767E",
"!  c #777A7C",
"~  c #8D6A1C",
"^  c #82651A",
"/  c #9C6B14",
"(  c #8E711D",
")  c #A77F1A",
"_  c #A87E18",
"`  c #856D29",
"'  c #9F7D29",
"]  c #937C3E",
"[  c #847542",
"{  c #937D42",
"}  c #887D51",
"|  c #877F58",
" . c #827E69",
".. c #A0811F",
"X. c #AF851C",
"o. c #AD8A19",
"O. c #B28B1E",
"+. c #B38114",
"@. c #BB981B",
"#. c #9C8028",
"$. c #9E932B",
"%. c #978B3D",
"&. c #A2852B",
"*. c #AA8C2E",
"=. c #AD9829",
"-. c #B79220",
";. c #B79E26",
":. c #BA9E21",
">. c #AC8E3B",
",. c #A49434",
"<. c #C89E19",
"1. c #C59E1A",
"2. c #E19F10",
"3. c #D8A414",
"4. c #E0A70F",
"5. c #ECAE10",
"6. c #F6BA12",
"7. c #CEAB22",
"8. c #D6AE2C",
"9. c #C5A234",
"0. c #E3C61D",
"q. c #FFCB14",
"w. c #FCC413",
"e. c #878146",
"r. c #95834D",
"t. c #8F8352",
"y. c #8D825A",
"u. c #AA9446",
"i. c #938D60",
"p. c #A8A573",
"a. c #757A83",
"s. c #7A7F86",
"d. c #6F8786",
"f. c #6A8789",
"g. c #6E8A8C",
"h. c #708587",
"j. c #7C828B",
"k. c #708C8E",
"l. c #709192",
"z. c #70B6AB",
"x. c #80868F",
"c. c #928F87",
"v. c #888E98",
"b. c #858B95",
"n. c #A6A39B",
"m. c #8F96A1",
"M. c #9197A1",
"N. c #9298A2",
"B. c #89AEA4",
"V. c #9BA2AD",
"C. c #84B6AF",
"Z. c #9EA5B1",
"A. c #82D8CC",
"S. c #9FD5CE",
"D. c #95D5C9",
"F. c #94E9DB",
"G. c #ADEBE4",
"H. c #B2F7EF",
/* pixels */
"                                                            ",
"                        d k N B C V V                       ",
"                3 v M U P K T E R R W Q a.j.j.T             ",
"                & = 3 9 [ { ] { r.y.I Y R j.V.V.N.a.f       ",
"                $ s V G G T H x > 6 ' >.y.! M.V.V.V.v.B     ",
"              + y f C G Y Y T W a.s - 2 X.9. .a.j.a.b.N.f   ",
"          ^ @.:.;.=.,.%.} m F T s.a.f s - _ 8.I Y Y x.N.E   ",
"          / 4.5.6.w.q.q.q.0.n Y Y a.C N d * 3.u.Y T T E Y   ",
"          & < 8 6 ~ +.) -.7.$.z T R d.A.D.B.p.i.C V C Y f   ",
"            O k g > 3.5 t k S G T T W Z z.F.H.G.S.C.d.u o   ",
"            X d B k O.1.; u k C Y R Q w 0 A g.d.k.l.h.$     ",
"              $ d N i O.@., t u f N B s 0 B Y T Y T W w     ",
"                o 0 t e ` ~ w s s d S R F z B V G V s       ",
"                    # 0 0 @ $ t s s k B F T Y C t           ",
"                  . w s k C z q q 0 $ w s f B C w           ",
"              o X t w B R W j.V S H +       $               ",
"            o 0 % l d N L t.} j J n.j                       ",
"          $ $ % h k S 0 - , r 0 D c.u                       ",
"          w d w c u B t $ t t t z h                         ",
"          . $ u d k l d $ s F D T T V u t w $               ",
"            q k d d d d q k G [ S T | a s $ $               ",
"            q k f k k k r p e % y u r @ .                   ",
"            0 k k k f t t u $                               ",
"    O     $ $ f k k d $ f f s                               ",
"  u f g B F s s k k t w k k d O                             ",
"  k b 9 M P c u k k 0 w f s 2 7                             ",
"  e ( o...#.*.9 0 0 $ B Y V &.&.                            ",
"                    0 B C 9 <.=                             ",
"                    % k k 9 `                               ",
"                            #                               "
};
